# xmcd
#
# Track frame offsets:
#  150
#  1982
#  17196
#  29726
#  45092
#  61402
#  71902
#  82568
#  96771
#  105850
#  116576
#  127379
#  139038
#  153198
#  167369
#  178328
#  199720
#  211013
#  225397
#  236530
#  249247
#  264375
#  275785
#  288177
#  298395
#  311254
#  323550
#  334539
#  346436
#
# Disc length: 4795 seconds
#
# Revision: 0
# Processed by: cddbd v1.5.2PL0 Copyright (c) Steve Scherf et al.
# Submitted via: Collectorz.com_Music_Collector 6.10
#
DISCID=8f12b91d
DTITLE=Various Artist - Country and Western [CD 2)
DYEAR=2000
DGENRE=Country
TTITLE0=Authentic Steam Engine
TTITLE1=The Groove Grass Boys - Macarena
TTITLE2=Jonny Cash and Martin Delray - Get Rhythm
TTITLE3=T.Cane Honey - Crash Bam Boom
TTITLE4=Carpenters - Jambalaya (No the Bayou)
TTITLE5=Garth Brooks - Against The Grain
TTITLE6=P.Miller - King of The Road
TTITLE7=La Toya Jackson - Burnin Love
TTITLE8=Frankie Laine - Rawhide
TTITLE9=Conway Twitty - Mona Lisa
TTITLE10=Don Gibson - Oh, Lonesome Me
TTITLE11=Alabama - Jolene
TTITLE12=Engelbert - The Most Beautifil Girl
TTITLE13=Wynonna - Girls with Guitars
TTITLE14=Charlie McCoy - Orange Blossom Special
TTITLE15=Chely Wright - Sea Of Cowboy Hats
TTITLE16=The Ventures - Expo Seven-O
TTITLE17=Carlene Carter - Every Little Thing
TTITLE18=Sketter Davis - Gonna Get Aong Without You Know
TTITLE19=Lynn Anderson - I Never Promised You A Rose Garden
TTITLE20=The Shadows - Riders In The Sky
TTITLE21=S.Bound - Ode to 10-33
TTITLE22=Suzy Brooks - Other side of the Hill
TTITLE23=Wanda Jackson - It's only make believe
TTITLE24=Jonny Horton's - North To Alaska
TTITLE25=Mark Chesnutt and George Jones - Talking to Hank
TTITLE26=Crystal Cayle - Don't Make My Brown Eyes Blue
TTITLE27=Randy Travis - Heart Of Hearts
TTITLE28=Ennio Morricone - The Good, The Bad and The Ugly
EXTD=
EXTT0=
EXTT1=
EXTT2=
EXTT3=
EXTT4=
EXTT5=
EXTT6=
EXTT7=
EXTT8=
EXTT9=
EXTT10=
EXTT11=
EXTT12=
EXTT13=
EXTT14=
EXTT15=
EXTT16=
EXTT17=
EXTT18=
EXTT19=
EXTT20=
EXTT21=
EXTT22=
EXTT23=
EXTT24=
EXTT25=
EXTT26=
EXTT27=
EXTT28=
PLAYORDER=
